<?xml version="1.0" standalone="no"?>
<!DOCTYPE svg PUBLIC "-//W3C//DTD SVG 20010904//EN"
 "http://www.w3.org/TR/2001/REC-SVG-20010904/DTD/svg10.dtd">
<svg version="1.0" xmlns="http://www.w3.org/2000/svg"
 width="256.000000pt" height="256.000000pt" viewBox="0 0 256.000000 256.000000"
 preserveAspectRatio="xMidYMid meet">
<metadata>
Created by potrace 1.11, written by Peter Selinger 2001-2013
</metadata>
<g transform="translate(0.000000,256.000000) scale(0.100000,-0.100000)"
fill="#000000" stroke="none">
<path d="M1109 2549 c-541 -78 -966 -475 -1084 -1014 -29 -129 -28 -365 1
-501 68 -325 237 -593 492 -782 134 -99 334 -190 482 -221 30 -6 66 -14 80
-17 59 -13 318 -12 405 2 759 124 1241 896 1019 1634 -140 462 -525 803 -1006
890 -103 18 -294 23 -389 9z m356 -164 c356 -65 660 -292 818 -610 81 -163
116 -322 112 -512 -1 -76 -6 -151 -9 -168 -29 -127 -41 -170 -73 -245 -108
-252 -282 -440 -518 -562 -331 -169 -705 -169 -1032 2 -219 114 -377 276 -483
495 -90 184 -119 317 -115 520 6 294 115 553 320 760 165 166 355 267 590 314
93 18 305 22 390 6z"/>
<path d="M837 2131 c-179 -96 -318 -237 -412 -417 -38 -72 -43 -105 -20 -124
25 -20 52 -2 75 53 73 170 220 324 399 419 77 40 92 59 68 86 -23 26 -33 24
-110 -17z"/>
<path d="M914 1989 c-123 -64 -228 -159 -301 -271 -74 -114 -93 -178 -57 -192
25 -10 52 12 73 58 51 116 172 249 287 315 100 58 104 61 104 81 0 16 -26 40
-43 40 -3 0 -31 -14 -63 -31z"/>
<path d="M960 1833 c-89 -50 -199 -164 -243 -252 -37 -74 -39 -106 -6 -116 27
-9 34 -2 75 76 44 84 139 183 215 223 71 38 89 54 82 74 -16 42 -41 41 -123
-5z"/>
<path d="M1180 1749 c-67 -13 -179 -72 -229 -121 -56 -55 -103 -128 -127 -198
-28 -81 -25 -234 6 -315 78 -203 271 -327 485 -312 205 15 379 160 429 359 29
116 17 220 -38 333 -94 191 -310 296 -526 254z m190 -163 c83 -24 157 -88 200
-172 35 -69 35 -196 0 -269 -31 -64 -91 -124 -155 -155 -69 -34 -198 -35 -265
-2 -74 36 -117 78 -152 150 -29 59 -33 76 -32 147 0 62 5 91 23 127 70 145
231 218 381 174z"/>
<path d="M1215 1426 c-88 -39 -122 -161 -67 -235 37 -50 70 -66 132 -66 97 0
155 58 155 155 0 63 -16 95 -67 133 -33 25 -113 32 -153 13z m114 -83 c12 -10
24 -34 27 -53 5 -28 1 -40 -20 -63 -45 -49 -119 -28 -132 37 -13 73 69 125
125 79z"/>
<path d="M1823 1093 c-7 -2 -29 -36 -50 -75 -46 -88 -138 -182 -221 -226 -70
-38 -76 -44 -68 -78 9 -33 35 -31 110 8 79 42 201 164 242 243 44 83 48 100
29 119 -17 17 -22 18 -42 9z"/>
<path d="M1962 1028 c-5 -7 -26 -44 -46 -82 -67 -128 -163 -225 -299 -301 -57
-33 -72 -46 -72 -64 0 -40 26 -47 81 -22 159 75 310 228 379 386 23 50 24 85
5 85 -5 0 -15 2 -23 5 -7 3 -19 0 -25 -7z"/>
<path d="M2109 963 c-8 -10 -23 -36 -33 -57 -75 -168 -249 -342 -417 -419 -46
-21 -60 -38 -53 -64 10 -35 32 -35 107 2 175 86 331 241 423 422 36 69 42 101
22 121 -17 17 -32 15 -49 -5z"/>
</g>
</svg>
